# xmcd
#
# Track frame offsets:
#	150
#	19210
#	37665
#	57093
#	74033
#	97308
#	114693
#	133693
#	150363
#	168443
#
# Disc length: 2517 seconds
#
# Revision: 1
# Processed by: cddbd v1.5.2PL0 Copyright (c) Steve Scherf et al.
# Submitted via: EasyCDDAExtractor 15.3.0.1
#
DISCID=8509d30a
DTITLE=Yolandita Monge - Antologia Musical Vol. 2 - CD 2
DYEAR=1994
DGENRE=Latin
TTITLE0=Acariciame (Sei Bellissima)
TTITLE1=Nunca Te Dire Adios
TTITLE2=Cantare
TTITLE3=Fuiste Un Sueño
TTITLE4=Ya No Hay Nada Que Callar
TTITLE5=No Me Acostumbro
TTITLE6=Laberinto Sin Salida
TTITLE7=Como Duele La Noche
TTITLE8=Sin Amor
TTITLE9=La Sombra De Lo Que Fui
EXTD=
EXTT0=
EXTT1=
EXTT2=
EXTT3=
EXTT4=
EXTT5=
EXTT6=
EXTT7=
EXTT8=
EXTT9=
PLAYORDER=
